# xmcd
#
# Track frame offsets:
#  150
#  21400
#  39120
#  56890
#  75715
#  99652
#  119415
#  136535
#  151892
#  169710
#  191302
#  227797
#
# Disc length: 4058 seconds
#
# Revision: 1
# Processed by: cddbd v1.5.1PL2 Copyright (c) Steve Scherf et al.
# Submitted via: Collectorz.com_Music_Collector 6.11
#
DISCID=8f0fd80c
DTITLE=Eddie Kirkland - Lonely Street
DYEAR=1997
DGENRE=Blues
TTITLE0=Lonely Street
TTITLE1=Dixie
TTITLE2=Done Somebody Wrong
TTITLE3=Snake In The Grass
TTITLE4=Pick Up The Pieces
TTITLE5=Dark Nights
TTITLE6=Respect For My Woman
TTITLE7=Blue River
TTITLE8=Nightgirl
TTITLE9=Berry Gordy Jr. - James Bradford - Money, That's What I Want
TTITLE10=Gates Of Heaven
TTITLE11=Data-Track 12
EXTD=
EXTT0=
EXTT1=
EXTT2=
EXTT3=
EXTT4=
EXTT5=
EXTT6=
EXTT7=
EXTT8=
EXTT9=
EXTT10=
EXTT11=
PLAYORDER=
